<svg width="66" height="66" viewBox="0 0 66 66" fill="none" xmlns="http://www.w3.org/2000/svg">
<path d="M39.804 4.52271C39.2652 4.02905 38.5562 3.76229 37.8251 3.77812C37.094 3.79396 36.3973 4.09116 35.8804 4.60769L4.60483 35.8407C4.34112 36.1038 4.13191 36.4162 3.98917 36.76C3.84643 37.1039 3.77296 37.4725 3.77296 37.8447C3.77296 38.2169 3.84643 38.5855 3.98917 38.9294C4.13191 39.2732 4.34112 39.5856 4.60483 39.8487L8.98228 44.2202L9.09573 44.2343C9.23755 44.2343 9.42664 44.1824 9.60627 44.0644C11.334 42.9133 13.4077 42.3958 15.4745 42.5998C17.5413 42.8038 19.4735 43.7169 20.942 45.1834C22.4106 46.65 23.3249 48.5795 23.5292 50.6435C23.7335 52.7075 23.2152 54.7784 22.0626 56.5038C21.9576 56.6537 21.8985 56.8308 21.8924 57.0136C21.8924 57.0734 21.8972 57.1096 21.9066 57.1222L26.1801 61.3946C26.4486 61.6633 26.7685 61.8754 27.1207 62.0182C27.473 62.161 27.8504 62.2317 28.2305 62.2259C28.6107 62.2202 28.9858 62.1382 29.3335 61.9849C29.6813 61.8315 29.9946 61.6099 30.255 61.3332L61.4502 28.2307C61.7071 27.9575 61.9071 27.636 62.0387 27.285C62.1703 26.9339 62.2308 26.5603 62.2167 26.1857C62.2027 25.8112 62.1143 25.4431 61.9567 25.1029C61.7992 24.7627 61.5756 24.4571 61.2989 24.2039L57.1105 20.3658H57.0963C57.0294 20.3511 56.96 20.3511 56.8931 20.3658C56.6287 20.4273 56.3875 20.5633 56.1982 20.7577C55.4082 21.6519 54.4476 22.3798 53.3726 22.8989C52.2975 23.4179 51.1297 23.7177 49.9372 23.7807C48.7448 23.8437 47.5518 23.6686 46.4279 23.2657C45.3041 22.8627 44.2719 22.2401 43.3919 21.434C42.5119 20.628 41.8017 19.6549 41.3027 18.5715C40.8038 17.4881 40.5262 16.3163 40.4861 15.1245C40.4461 13.9327 40.6444 12.7449 41.0695 11.6305C41.4946 10.5162 42.1379 9.49766 42.9618 8.63456C43.138 8.42838 43.2512 8.17606 43.288 7.90755C43.298 7.83622 43.2916 7.76356 43.2691 7.69511L39.804 4.52271ZM33.2095 1.9357C34.4155 0.731379 36.0405 0.0384972 37.7456 0.00155642C39.4507 -0.0353844 41.1043 0.586468 42.3615 1.73742L45.8266 4.91454C46.8618 5.85871 47.1502 7.1475 47.0556 8.24745C46.9564 9.33324 46.4789 10.3954 45.7415 11.1932C45.2799 11.696 44.922 12.2847 44.6883 12.9256C44.4545 13.5665 44.3494 14.2471 44.3791 14.9285C44.4087 15.61 44.5725 16.2789 44.861 16.8971C45.1495 17.5154 45.5571 18.0708 46.0606 18.5318C46.564 18.9927 47.1535 19.3501 47.7952 19.5835C48.437 19.817 49.1185 19.9219 49.8009 19.8923C50.4833 19.8627 51.1531 19.6992 51.7722 19.4111C52.3913 19.123 52.9475 18.7159 53.4091 18.2131C54.1418 17.4106 55.1582 16.8441 56.2313 16.6505C56.8363 16.5285 57.4616 16.549 58.0573 16.7104C58.6531 16.8719 59.2029 17.1698 59.6632 17.5805L63.8563 21.4186C64.5019 22.0101 65.0234 22.7238 65.3906 23.5181C65.7578 24.3125 65.9635 25.1718 65.9956 26.0461C66.0277 26.9205 65.8856 27.7925 65.5776 28.6116C65.2696 29.4307 64.8019 30.1806 64.2014 30.8177L33.0109 63.9202C32.4035 64.5648 31.6727 65.0809 30.8617 65.4381C30.0508 65.7952 29.1763 65.9861 28.2901 65.9993C27.4039 66.0125 26.524 65.8478 25.7028 65.515C24.8815 65.1822 24.1355 64.688 23.5091 64.0618L19.2357 59.7942C17.5953 58.1561 17.9924 55.7957 18.919 54.4124C19.5837 53.4137 19.8818 52.216 19.7626 51.0227C19.6435 49.8293 19.1144 48.714 18.2653 47.866C17.4161 47.018 16.2993 46.4897 15.1043 46.3707C13.9094 46.2517 12.71 46.5494 11.7099 47.2132C10.3154 48.1337 7.95646 48.5303 6.3161 46.8874L1.93866 42.516C1.32403 41.9022 0.836479 41.1736 0.503842 40.3717C0.171206 39.5698 0 38.7103 0 37.8423C0 36.9743 0.171206 36.1149 0.503842 35.313C0.836479 34.5111 1.32403 33.7824 1.93866 33.1687L33.2095 1.9357Z" fill="#E1E1E1"/>
<g clip-path="url(#clip0_111_4457)">
<circle cx="48.5" cy="45.5" r="12.5" fill="#E1E1E1"/>
<path d="M49.6656 45.5L54.5094 40.6562C54.5859 40.5797 54.6466 40.4889 54.688 40.3889C54.7295 40.2889 54.7508 40.1817 54.7508 40.0734C54.7508 39.9652 54.7295 39.858 54.688 39.758C54.6466 39.658 54.5859 39.5672 54.5094 39.4906C54.4328 39.4141 54.342 39.3534 54.242 39.312C54.142 39.2705 54.0348 39.2492 53.9266 39.2492C53.8183 39.2492 53.7111 39.2705 53.6111 39.312C53.5111 39.3534 53.4203 39.4141 53.3438 39.4906L48.5 44.3344L43.6562 39.4906C43.5797 39.4141 43.4889 39.3534 43.3889 39.312C43.2889 39.2705 43.1817 39.2492 43.0734 39.2492C42.9652 39.2492 42.858 39.2705 42.758 39.312C42.658 39.3534 42.5672 39.4141 42.4906 39.4906C42.4141 39.5672 42.3534 39.658 42.312 39.758C42.2705 39.858 42.2492 39.9652 42.2492 40.0734C42.2492 40.1817 42.2705 40.2889 42.312 40.3889C42.3534 40.4889 42.4141 40.5797 42.4906 40.6562L47.3344 45.5L42.4906 50.3438C42.4141 50.4203 42.3534 50.5111 42.312 50.6111C42.2705 50.7111 42.2492 50.8183 42.2492 50.9266C42.2492 51.0348 42.2705 51.142 42.312 51.242C42.3534 51.342 42.4141 51.4328 42.4906 51.5094C42.5672 51.5859 42.658 51.6466 42.758 51.688C42.858 51.7295 42.9652 51.7508 43.0734 51.7508C43.1817 51.7508 43.2889 51.7295 43.3889 51.688C43.4889 51.6466 43.5797 51.5859 43.6562 51.5094L48.5 46.6656L53.3438 51.5094C53.4203 51.5859 53.5111 51.6466 53.6111 51.688C53.7111 51.7295 53.8183 51.7508 53.9266 51.7508C54.0348 51.7508 54.142 51.7295 54.242 51.688C54.342 51.6466 54.4328 51.5859 54.5094 51.5094C54.5859 51.4328 54.6466 51.342 54.688 51.242C54.7295 51.142 54.7508 51.0348 54.7508 50.9266C54.7508 50.8183 54.7295 50.7111 54.688 50.6111C54.6466 50.5111 54.5859 50.4203 54.5094 50.3438L49.6656 45.5ZM48.5 58C45.1848 58 42.0054 56.683 39.6612 54.3388C37.317 51.9946 36 48.8152 36 45.5C36 42.1848 37.317 39.0054 39.6612 36.6612C42.0054 34.317 45.1848 33 48.5 33C51.8152 33 54.9946 34.317 57.3388 36.6612C59.683 39.0054 61 42.1848 61 45.5C61 48.8152 59.683 51.9946 57.3388 54.3388C54.9946 56.683 51.8152 58 48.5 58Z" fill="#BA0507"/>
</g>
<defs>
<clipPath id="clip0_111_4457">
<rect width="25" height="25" fill="white" transform="translate(36 33)"/>
</clipPath>
</defs>
</svg>
