<svg width="10" height="12" viewBox="0 0 10 12" fill="none" xmlns="http://www.w3.org/2000/svg">
<path d="M1.84313 12H8.15687C9.38765 12 10 11.418 10 10.2481V1.75737C10 0.593194 9.38765 0 8.15687 0H1.84313C0.618437 0 0 0.593194 0 1.75761V10.2481C0 11.4178 0.618437 12 1.84313 12ZM1.89057 11.099C1.27822 11.099 0.95708 10.7909 0.95708 10.2314V1.77433C0.95708 1.2203 1.27822 0.901015 1.89666 0.901015H8.10943C8.72761 0.901015 9.04292 1.21457 9.04292 1.77433V10.2314C9.04292 10.7909 8.72761 11.099 8.11527 11.099H1.89057ZM2.75278 3.2406H7.25914C7.46715 3.2406 7.62772 3.08394 7.62772 2.88812C7.62772 2.69779 7.4674 2.55236 7.25914 2.55236H2.75278C2.5326 2.55236 2.37811 2.69779 2.37811 2.88812C2.37811 3.08394 2.53285 3.2406 2.75278 3.2406ZM2.75278 5.19403H7.25914C7.46715 5.19403 7.62772 5.03737 7.62772 4.84131C7.62772 4.65122 7.4674 4.50555 7.25914 4.50555H2.75278C2.5326 4.50555 2.37811 4.65122 2.37811 4.84131C2.37811 5.03713 2.53285 5.19403 2.75278 5.19403ZM2.75278 7.14746H4.88712C5.09512 7.14746 5.25569 6.9963 5.25569 6.80597C5.25569 6.61015 5.09512 6.45899 4.88712 6.45899H2.75252C2.53234 6.45899 2.37786 6.61015 2.37786 6.80597C2.37786 6.9963 2.5326 7.14746 2.75252 7.14746" fill="#E1E1E1"/>
</svg>
