<svg width="15" height="12" viewBox="0 0 15 12" fill="none" xmlns="http://www.w3.org/2000/svg">
<path d="M9.6 3L10.5 3.9L5.4 9L4.5 8.1L9.6 3ZM1.5 0H13.5C14.3325 0 15 0.6675 15 1.5V4.5C14.6022 4.5 14.2206 4.65804 13.9393 4.93934C13.658 5.22064 13.5 5.60218 13.5 6C13.5 6.39782 13.658 6.77936 13.9393 7.06066C14.2206 7.34196 14.6022 7.5 15 7.5V10.5C15 11.3325 14.3325 12 13.5 12H1.5C1.10218 12 0.720644 11.842 0.43934 11.5607C0.158035 11.2794 0 10.8978 0 10.5V7.5C0.8325 7.5 1.5 6.8325 1.5 6C1.5 5.60218 1.34196 5.22064 1.06066 4.93934C0.779356 4.65804 0.397825 4.5 0 4.5V1.5C0 1.10218 0.158035 0.720644 0.43934 0.43934C0.720644 0.158035 1.10218 0 1.5 0ZM1.5 1.5V3.405C1.95576 3.6678 2.33427 4.046 2.59744 4.50154C2.86062 4.95708 2.99917 5.4739 2.99917 6C2.99917 6.5261 2.86062 7.04292 2.59744 7.49846C2.33427 7.954 1.95576 8.3322 1.5 8.595V10.5H13.5V8.595C13.0442 8.3322 12.6657 7.954 12.4026 7.49846C12.1394 7.04292 12.0008 6.5261 12.0008 6C12.0008 5.4739 12.1394 4.95708 12.4026 4.50154C12.6657 4.046 13.0442 3.6678 13.5 3.405V1.5H1.5ZM5.625 3C6.2475 3 6.75 3.5025 6.75 4.125C6.75 4.7475 6.2475 5.25 5.625 5.25C5.0025 5.25 4.5 4.7475 4.5 4.125C4.5 3.5025 5.0025 3 5.625 3ZM9.375 6.75C9.9975 6.75 10.5 7.2525 10.5 7.875C10.5 8.4975 9.9975 9 9.375 9C8.7525 9 8.25 8.4975 8.25 7.875C8.25 7.2525 8.7525 6.75 9.375 6.75Z" fill="#E1E1E1"/>
</svg>
